<?xml version="1.0" encoding="utf-8"?>
<svg version="1.1" xmlns:xlink="http://www.w3.org/1999/xlink" width="77px" height="77px" xmlns="http://www.w3.org/2000/svg">
  <g transform="matrix(1 0 0 1 -1476 -308 )">
    <path d="M 1514.5 310  C 1534.94 310  1551 326.06  1551 346.5  C 1551 366.94  1534.94 383  1514.5 383  C 1494.06 383  1478 366.94  1478 346.5  C 1478 326.06  1494.06 310  1514.5 310  Z " fill-rule="nonzero" fill="#02a7f0" stroke="none" />
    <path d="M 1514.5 309.5  C 1535.22 309.5  1551.5 325.78  1551.5 346.5  C 1551.5 367.22  1535.22 383.5  1514.5 383.5  C 1493.78 383.5  1477.5 367.22  1477.5 346.5  C 1477.5 325.78  1493.78 309.5  1514.5 309.5  Z " stroke-width="3" stroke="#027db4" fill="none" />
  </g>
</svg>