<?xml version="1.0" encoding="utf-8"?>
<svg version="1.1" xmlns:xlink="http://www.w3.org/1999/xlink" width="21px" height="19px" xmlns="http://www.w3.org/2000/svg">
  <defs>
    <linearGradient gradientUnits="userSpaceOnUse" x1="10.5" y1="0" x2="10.5" y2="19" id="LinearGradient129">
      <stop id="Stop130" stop-color="#ffcc00" offset="0" />
      <stop id="Stop131" stop-color="#ff6633" offset="1" />
    </linearGradient>
  </defs>
  <g transform="matrix(1 0 0 1 -691 -514 )">
    <path d="M 0 4.07142857142857  L 10.5 0  L 21 4.07142857142857  L 21 5.42857142857143  L 19.6 5.42857142857143  C 19.6 5.61235119047619  19.5252604166667 5.77139136904762  19.37578125 5.90569196428572  C 19.2263020833333 6.03999255952381  19.0494791666667 6.10714285714286  18.8453125 6.10714285714286  L 2.1546875 6.10714285714286  C 1.95052083333333 6.10714285714286  1.77369791666667 6.03999255952381  1.62421875 5.90569196428572  C 1.47473958333333 5.77139136904762  1.4 5.61235119047619  1.4 5.42857142857143  L 0 5.42857142857143  L 0 4.07142857142857  Z M 2.8 14.9285714285714  L 2.8 6.78571428571428  L 5.6 6.78571428571428  L 5.6 14.9285714285714  L 7 14.9285714285714  L 7 6.78571428571428  L 9.8 6.78571428571428  L 9.8 14.9285714285714  L 11.2 14.9285714285714  L 11.2 6.78571428571428  L 14 6.78571428571428  L 14 14.9285714285714  L 15.4 14.9285714285714  L 15.4 6.78571428571428  L 18.2 6.78571428571428  L 18.2 14.9285714285714  L 18.8453125 14.9285714285714  C 19.0494791666667 14.9285714285714  19.2263020833333 14.9957217261905  19.37578125 15.1300223214286  C 19.5252604166667 15.2643229166667  19.6 15.4233630952381  19.6 15.6071428571429  L 19.6 16  L 1.4 16  L 1.4 15.6071428571429  C 1.4 15.4233630952381  1.47473958333333 15.2643229166667  1.62421875 15.1300223214286  C 1.77369791666667 14.9957217261905  1.95052083333333 14.9285714285714  2.1546875 14.9285714285714  L 2.8 14.9285714285714  Z M 0.7546875 17  L 20.2453125 17  C 20.4494791666667 16.9642857142857  20.6263020833333 17.0314360119048  20.77578125 17.1657366071429  C 20.9252604166667 17.300037202381  21 17.4590773809524  21 17.6428571428571  L 21 19  L 0 19  L 0 17.6428571428571  C 0 17.4590773809524  0.0747395833333333 17.300037202381  0.22421875 17.1657366071429  C 0.373697916666667 17.0314360119048  0.550520833333333 16.9642857142857  0.7546875 17  Z " fill-rule="nonzero" fill="url(#LinearGradient129)" stroke="none" transform="matrix(1 0 0 1 691 514 )" />
  </g>
</svg>