<?xml version="1.0" encoding="utf-8"?>
<svg version="1.1" xmlns:xlink="http://www.w3.org/1999/xlink" width="16px" height="19px" xmlns="http://www.w3.org/2000/svg">
  <defs>
    <linearGradient gradientUnits="userSpaceOnUse" x1="8" y1="0" x2="8" y2="19" id="LinearGradient27">
      <stop id="Stop28" stop-color="#00ccff" offset="0" />
      <stop id="Stop29" stop-color="#0033ff" offset="1" />
    </linearGradient>
  </defs>
  <g transform="matrix(1 0 0 1 -832 -496 )">
    <path d="M 3.38541666666667 7.68694196428572  C 4.81597222222222 7.99088541666667  6.35416666666667 8.14285714285714  8 8.14285714285714  C 9.64583333333333 8.14285714285714  11.1840277777778 7.99088541666667  12.6145833333333 7.68694196428572  C 14.0451388888889 7.38299851190476  15.1736111111111 6.93415178571428  16 6.34040178571428  L 16 8.14285714285714  C 16 8.63058035714286  15.6423611111111 9.08296130952381  14.9270833333333 9.5  C 14.2118055555556 9.91703869047619  13.2395833333333 10.2474888392857  12.0104166666667 10.4913504464286  C 10.78125 10.7352120535714  9.44444444444444 10.8571428571429  8 10.8571428571429  C 6.55555555555556 10.8571428571429  5.21875 10.7352120535714  3.98958333333333 10.4913504464286  C 2.76041666666667 10.2474888392857  1.78819444444444 9.91703869047619  1.07291666666667 9.5  C 0.357638888888889 9.08296130952381  0 8.63058035714286  0 8.14285714285714  L 0 6.34040178571428  C 0.826388888888889 6.93415178571428  1.95486111111111 7.38299851190476  3.38541666666667 7.68694196428572  Z M 3.38541666666667 15.8297991071429  C 4.81597222222222 16.1337425595238  6.35416666666667 16.2857142857143  8 16.2857142857143  C 9.64583333333333 16.2857142857143  11.1840277777778 16.1337425595238  12.6145833333333 15.8297991071429  C 14.0451388888889 15.5258556547619  15.1736111111111 15.0770089285714  16 14.4832589285714  L 16 16.2857142857143  C 16 16.7734375  15.6423611111111 17.225818452381  14.9270833333333 17.6428571428571  C 14.2118055555556 18.0598958333333  13.2395833333333 18.3903459821429  12.0104166666667 18.6342075892857  C 10.78125 18.8780691964286  9.44444444444444 19  8 19  C 6.55555555555556 19  5.21875 18.8780691964286  3.98958333333333 18.6342075892857  C 2.76041666666667 18.3903459821429  1.78819444444444 18.0598958333333  1.07291666666667 17.6428571428571  C 0.357638888888889 17.225818452381  0 16.7734375  0 16.2857142857143  L 0 14.4832589285714  C 0.826388888888889 15.0770089285714  1.95486111111111 15.5258556547619  3.38541666666667 15.8297991071429  Z M 3.38541666666667 11.7583705357143  C 4.81597222222222 12.0623139880952  6.35416666666667 12.2142857142857  8 12.2142857142857  C 9.64583333333333 12.2142857142857  11.1840277777778 12.0623139880952  12.6145833333333 11.7583705357143  C 14.0451388888889 11.4544270833333  15.1736111111111 11.0055803571429  16 10.4118303571429  L 16 12.2142857142857  C 16 12.7020089285714  15.6423611111111 13.1543898809524  14.9270833333333 13.5714285714286  C 14.2118055555556 13.9884672619048  13.2395833333333 14.3189174107143  12.0104166666667 14.5627790178571  C 10.78125 14.806640625  9.44444444444444 14.9285714285714  8 14.9285714285714  C 6.55555555555556 14.9285714285714  5.21875 14.806640625  3.98958333333333 14.5627790178571  C 2.76041666666667 14.3189174107143  1.78819444444444 13.9884672619048  1.07291666666667 13.5714285714286  C 0.357638888888889 13.1543898809524  0 12.7020089285714  0 12.2142857142857  L 0 10.4118303571429  C 0.826388888888889 11.0055803571429  1.95486111111111 11.4544270833333  3.38541666666667 11.7583705357143  Z M 3.98958333333333 0.365792410714285  C 5.21875 0.121930803571428  6.55555555555556 0  8 0  C 9.44444444444444 0  10.78125 0.121930803571428  12.0104166666667 0.365792410714285  C 13.2395833333333 0.609654017857143  14.2118055555556 0.940104166666666  14.9270833333333 1.35714285714286  C 15.6423611111111 1.77418154761905  16 2.2265625  16 2.71428571428572  L 16 4.07142857142857  C 16 4.55915178571428  15.6423611111111 5.01153273809524  14.9270833333333 5.42857142857143  C 14.2118055555556 5.84561011904762  13.2395833333333 6.17606026785714  12.0104166666667 6.419921875  C 10.78125 6.66378348214286  9.44444444444444 6.78571428571428  8 6.78571428571428  C 6.55555555555556 6.78571428571428  5.21875 6.66378348214286  3.98958333333333 6.419921875  C 2.76041666666667 6.17606026785714  1.78819444444444 5.84561011904762  1.07291666666667 5.42857142857143  C 0.357638888888889 5.01153273809524  0 4.55915178571428  0 4.07142857142857  L 0 2.71428571428572  C 0 2.2265625  0.357638888888889 1.77418154761905  1.07291666666667 1.35714285714286  C 1.78819444444444 0.940104166666666  2.76041666666667 0.609654017857143  3.98958333333333 0.365792410714285  Z " fill-rule="nonzero" fill="url(#LinearGradient27)" stroke="none" transform="matrix(1 0 0 1 832 496 )" />
  </g>
</svg>