<?xml version="1.0" encoding="utf-8"?>
<svg version="1.1" xmlns:xlink="http://www.w3.org/1999/xlink" width="45px" height="63px" xmlns="http://www.w3.org/2000/svg">
  <defs>
    <linearGradient gradientUnits="userSpaceOnUse" x1="22.5" y1="0" x2="22.5" y2="63" id="LinearGradient138">
      <stop id="Stop139" stop-color="#888bff" offset="0" />
      <stop id="Stop140" stop-color="#6633ff" offset="1" />
    </linearGradient>
    <mask fill="white" id="clip141">
      <path d="M 41.4404296875 33.6827445652174  C 43.8134765625 30.0591032608695  45 26.1358695652174  45 21.9130434782609  C 45 15.8641304347825  42.802734375 10.6997282608696  38.408203125 6.41983695652168  C 34.013671875 2.13994565217389  28.7109375 0  22.5 0  C 16.2890625000001 0  10.986328125 2.13994565217389  6.591796875 6.41983695652168  C 2.197265625 10.6997282608696  0 15.8641304347825  0 21.9130434782609  C 0 26.0502717391305  1.1865234375 29.9735054347826  3.5595703125 33.6827445652174  C 3.7353515625 33.9395380434783  4.65087890624995 35.2306385869566  6.30615234375 37.5560461956522  C 7.96142578125005 39.8814538043478  9.44091796874995 42.0356657608696  10.74462890625 44.0186820652174  C 12.04833984375 46.0016983695652  13.505859375 48.5411005434783  15.1171875 51.6368885869565  C 16.7285156250001 54.7326766304349  17.9443359375 57.6073369565217  18.7646484375 60.2608695652174  C 19.0283203125 61.116847826087  19.5263671875 61.7873641304348  20.2587890625 62.2724184782609  C 20.9912109375001 62.7574728260869  21.7382812500001 63  22.5 63  C 23.26171875 63  24.01611328125 62.7574728260869  24.76318359375 62.2724184782609  C 25.51025390625 61.7873641304348  26.0009765625001 61.116847826087  26.2353515625 60.2608695652174  C 27.0556640625001 57.6073369565217  28.271484375 54.7326766304349  29.8828125 51.6368885869565  C 31.4941406250001 48.5411005434783  32.95166015625 46.0016983695652  34.25537109375 44.0186820652174  C 35.5590820312501 42.0356657608696  37.03857421875 39.8814538043478  38.69384765625 37.5560461956522  C 40.3491210937501 35.2306385869566  41.2646484375 33.9395380434783  41.4404296875 33.6827445652174  Z " fill-rule="evenodd" />
    </mask>
  </defs>
  <g transform="matrix(1 0 0 1 -785 -469 )">
    <path d="M 41.4404296875 33.6827445652174  C 43.8134765625 30.0591032608695  45 26.1358695652174  45 21.9130434782609  C 45 15.8641304347825  42.802734375 10.6997282608696  38.408203125 6.41983695652168  C 34.013671875 2.13994565217389  28.7109375 0  22.5 0  C 16.2890625000001 0  10.986328125 2.13994565217389  6.591796875 6.41983695652168  C 2.197265625 10.6997282608696  0 15.8641304347825  0 21.9130434782609  C 0 26.0502717391305  1.1865234375 29.9735054347826  3.5595703125 33.6827445652174  C 3.7353515625 33.9395380434783  4.65087890624995 35.2306385869566  6.30615234375 37.5560461956522  C 7.96142578125005 39.8814538043478  9.44091796874995 42.0356657608696  10.74462890625 44.0186820652174  C 12.04833984375 46.0016983695652  13.505859375 48.5411005434783  15.1171875 51.6368885869565  C 16.7285156250001 54.7326766304349  17.9443359375 57.6073369565217  18.7646484375 60.2608695652174  C 19.0283203125 61.116847826087  19.5263671875 61.7873641304348  20.2587890625 62.2724184782609  C 20.9912109375001 62.7574728260869  21.7382812500001 63  22.5 63  C 23.26171875 63  24.01611328125 62.7574728260869  24.76318359375 62.2724184782609  C 25.51025390625 61.7873641304348  26.0009765625001 61.116847826087  26.2353515625 60.2608695652174  C 27.0556640625001 57.6073369565217  28.271484375 54.7326766304349  29.8828125 51.6368885869565  C 31.4941406250001 48.5411005434783  32.95166015625 46.0016983695652  34.25537109375 44.0186820652174  C 35.5590820312501 42.0356657608696  37.03857421875 39.8814538043478  38.69384765625 37.5560461956522  C 40.3491210937501 35.2306385869566  41.2646484375 33.9395380434783  41.4404296875 33.6827445652174  Z " fill-rule="nonzero" fill="url(#LinearGradient138)" stroke="none" transform="matrix(1 0 0 1 785 469 )" />
    <path d="M 41.4404296875 33.6827445652174  C 43.8134765625 30.0591032608695  45 26.1358695652174  45 21.9130434782609  C 45 15.8641304347825  42.802734375 10.6997282608696  38.408203125 6.41983695652168  C 34.013671875 2.13994565217389  28.7109375 0  22.5 0  C 16.2890625000001 0  10.986328125 2.13994565217389  6.591796875 6.41983695652168  C 2.197265625 10.6997282608696  0 15.8641304347825  0 21.9130434782609  C 0 26.0502717391305  1.1865234375 29.9735054347826  3.5595703125 33.6827445652174  C 3.7353515625 33.9395380434783  4.65087890624995 35.2306385869566  6.30615234375 37.5560461956522  C 7.96142578125005 39.8814538043478  9.44091796874995 42.0356657608696  10.74462890625 44.0186820652174  C 12.04833984375 46.0016983695652  13.505859375 48.5411005434783  15.1171875 51.6368885869565  C 16.7285156250001 54.7326766304349  17.9443359375 57.6073369565217  18.7646484375 60.2608695652174  C 19.0283203125 61.116847826087  19.5263671875 61.7873641304348  20.2587890625 62.2724184782609  C 20.9912109375001 62.7574728260869  21.7382812500001 63  22.5 63  C 23.26171875 63  24.01611328125 62.7574728260869  24.76318359375 62.2724184782609  C 25.51025390625 61.7873641304348  26.0009765625001 61.116847826087  26.2353515625 60.2608695652174  C 27.0556640625001 57.6073369565217  28.271484375 54.7326766304349  29.8828125 51.6368885869565  C 31.4941406250001 48.5411005434783  32.95166015625 46.0016983695652  34.25537109375 44.0186820652174  C 35.5590820312501 42.0356657608696  37.03857421875 39.8814538043478  38.69384765625 37.5560461956522  C 40.3491210937501 35.2306385869566  41.2646484375 33.9395380434783  41.4404296875 33.6827445652174  Z " stroke-width="2" stroke="#ffffff" fill="none" stroke-opacity="0.6" transform="matrix(1 0 0 1 785 469 )" mask="url(#clip141)" />
  </g>
</svg>