<?xml version="1.0" encoding="utf-8"?>
<svg version="1.1" xmlns:xlink="http://www.w3.org/1999/xlink" width="42px" height="50px" xmlns="http://www.w3.org/2000/svg">
  <defs>
    <linearGradient gradientUnits="userSpaceOnUse" x1="21" y1="0" x2="21" y2="50" id="LinearGradient34">
      <stop id="Stop35" stop-color="#ff9900" offset="0" />
      <stop id="Stop36" stop-color="#ff3300" offset="1" />
    </linearGradient>
    <mask fill="white" id="clip37">
      <path d="M 38.677734375 26.7323369565218  C 40.892578125 23.8564311594203  42 20.7427536231884  42 17.3913043478261  C 42 12.5905797101449  39.94921875 8.491847826087  35.84765625 5.09510869565213  C 31.74609375 1.69836956521738  26.796875 0  21 0  C 15.203125 0  10.25390625 1.69836956521738  6.15234375 5.09510869565213  C 2.05078125 8.491847826087  0 12.5905797101449  0 17.3913043478261  C 0 20.6748188405797  1.107421875 23.7884963768116  3.322265625 26.7323369565218  C 3.486328125 26.9361413043479  4.34082031249995 27.9608242753624  5.8857421875 29.8063858695653  C 7.43066406250005 31.6519474637681  8.81152343749996 33.3616394927536  10.0283203125 34.9354619565217  C 11.2451171875 36.5092844202899  12.60546875 38.5246829710145  14.109375 40.9816576086956  C 15.61328125 43.4386322463769  16.748046875 45.7201086956521  17.513671875 47.8260869565217  C 17.759765625 48.5054347826087  18.224609375 49.0375905797101  18.908203125 49.4225543478261  C 19.591796875 49.807518115942  20.2890625 50  21 50  C 21.7109375 50  22.4150390625 49.807518115942  23.1123046875 49.4225543478261  C 23.8095703125 49.0375905797101  24.267578125 48.5054347826087  24.486328125 47.8260869565217  C 25.251953125 45.7201086956521  26.38671875 43.4386322463769  27.890625 40.9816576086956  C 29.39453125 38.5246829710145  30.7548828125 36.5092844202899  31.9716796875 34.9354619565217  C 33.1884765625 33.3616394927536  34.5693359375 31.6519474637681  36.1142578125 29.8063858695653  C 37.6591796875 27.9608242753624  38.513671875 26.9361413043479  38.677734375 26.7323369565218  Z " fill-rule="evenodd" />
    </mask>
  </defs>
  <g transform="matrix(1 0 0 1 -682 -590 )">
    <path d="M 38.677734375 26.7323369565218  C 40.892578125 23.8564311594203  42 20.7427536231884  42 17.3913043478261  C 42 12.5905797101449  39.94921875 8.491847826087  35.84765625 5.09510869565213  C 31.74609375 1.69836956521738  26.796875 0  21 0  C 15.203125 0  10.25390625 1.69836956521738  6.15234375 5.09510869565213  C 2.05078125 8.491847826087  0 12.5905797101449  0 17.3913043478261  C 0 20.6748188405797  1.107421875 23.7884963768116  3.322265625 26.7323369565218  C 3.486328125 26.9361413043479  4.34082031249995 27.9608242753624  5.8857421875 29.8063858695653  C 7.43066406250005 31.6519474637681  8.81152343749996 33.3616394927536  10.0283203125 34.9354619565217  C 11.2451171875 36.5092844202899  12.60546875 38.5246829710145  14.109375 40.9816576086956  C 15.61328125 43.4386322463769  16.748046875 45.7201086956521  17.513671875 47.8260869565217  C 17.759765625 48.5054347826087  18.224609375 49.0375905797101  18.908203125 49.4225543478261  C 19.591796875 49.807518115942  20.2890625 50  21 50  C 21.7109375 50  22.4150390625 49.807518115942  23.1123046875 49.4225543478261  C 23.8095703125 49.0375905797101  24.267578125 48.5054347826087  24.486328125 47.8260869565217  C 25.251953125 45.7201086956521  26.38671875 43.4386322463769  27.890625 40.9816576086956  C 29.39453125 38.5246829710145  30.7548828125 36.5092844202899  31.9716796875 34.9354619565217  C 33.1884765625 33.3616394927536  34.5693359375 31.6519474637681  36.1142578125 29.8063858695653  C 37.6591796875 27.9608242753624  38.513671875 26.9361413043479  38.677734375 26.7323369565218  Z " fill-rule="nonzero" fill="url(#LinearGradient34)" stroke="none" transform="matrix(1 0 0 1 682 590 )" />
    <path d="M 38.677734375 26.7323369565218  C 40.892578125 23.8564311594203  42 20.7427536231884  42 17.3913043478261  C 42 12.5905797101449  39.94921875 8.491847826087  35.84765625 5.09510869565213  C 31.74609375 1.69836956521738  26.796875 0  21 0  C 15.203125 0  10.25390625 1.69836956521738  6.15234375 5.09510869565213  C 2.05078125 8.491847826087  0 12.5905797101449  0 17.3913043478261  C 0 20.6748188405797  1.107421875 23.7884963768116  3.322265625 26.7323369565218  C 3.486328125 26.9361413043479  4.34082031249995 27.9608242753624  5.8857421875 29.8063858695653  C 7.43066406250005 31.6519474637681  8.81152343749996 33.3616394927536  10.0283203125 34.9354619565217  C 11.2451171875 36.5092844202899  12.60546875 38.5246829710145  14.109375 40.9816576086956  C 15.61328125 43.4386322463769  16.748046875 45.7201086956521  17.513671875 47.8260869565217  C 17.759765625 48.5054347826087  18.224609375 49.0375905797101  18.908203125 49.4225543478261  C 19.591796875 49.807518115942  20.2890625 50  21 50  C 21.7109375 50  22.4150390625 49.807518115942  23.1123046875 49.4225543478261  C 23.8095703125 49.0375905797101  24.267578125 48.5054347826087  24.486328125 47.8260869565217  C 25.251953125 45.7201086956521  26.38671875 43.4386322463769  27.890625 40.9816576086956  C 29.39453125 38.5246829710145  30.7548828125 36.5092844202899  31.9716796875 34.9354619565217  C 33.1884765625 33.3616394927536  34.5693359375 31.6519474637681  36.1142578125 29.8063858695653  C 37.6591796875 27.9608242753624  38.513671875 26.9361413043479  38.677734375 26.7323369565218  Z " stroke-width="2" stroke="#ffffff" fill="none" stroke-opacity="0.6" transform="matrix(1 0 0 1 682 590 )" mask="url(#clip37)" />
  </g>
</svg>