<?xml version="1.0" encoding="utf-8"?>
<svg version="1.1" xmlns:xlink="http://www.w3.org/1999/xlink" width="19px" height="16px" xmlns="http://www.w3.org/2000/svg">
  <defs>
    <linearGradient gradientUnits="userSpaceOnUse" x1="9.5" y1="0" x2="9.5" y2="16" id="LinearGradient41">
      <stop id="Stop42" stop-color="#cc66ff" offset="0" />
      <stop id="Stop43" stop-color="#9900ff" offset="1" />
    </linearGradient>
  </defs>
  <g transform="matrix(1 0 0 1 -1307 -476 )">
    <path d="M 2.40248842592593 0.390625  C 2.67737268518519 0.651041666666666  2.81481481481481 0.965277777777777  2.81481481481481 1.33333333333333  C 2.81481481481481 1.83333333333333  2.58024691358025 2.21527777777778  2.11111111111111 2.47916666666667  L 2.11111111111111 15.6666666666667  C 2.11111111111111 15.7569444444444  2.07629243827161 15.8350694444444  2.00665509259259 15.9010416666667  C 1.93701774691358 15.9670138888889  1.8545524691358 16  1.75925925925926 16  L 1.05555555555556 16  C 0.960262345679012 16  0.877797067901235 15.9670138888889  0.808159722222222 15.9010416666667  C 0.73852237654321 15.8350694444444  0.703703703703704 15.7569444444444  1 15.6666666666667  L 1 2.47916666666667  C 0.234567901234568 2.21527777777778  0 1.83333333333333  0 1.33333333333333  C 0 0.965277777777777  0.13744212962963 0.651041666666666  0.412326388888889 0.390625  C 0.687210648148148 0.130208333333334  1.01890432098765 0  1.40740740740741 0  C 1.79591049382716 0  2.12760416666667 0.130208333333334  2.40248842592593 0.390625  Z M 18.791087962963 1.53125  C 18.930362654321 1.66319444444444  19 1.81944444444444  19 2  L 19 9.94791666666667  C 19 10.1215277777778  18.9541859567901 10.2552083333333  18.8625578703704 10.3489583333333  C 18.7709297839506 10.4427083333333  18.6261574074074 10.5381944444444  18.4282407407407 10.6354166666667  C 16.852237654321 11.4409722222222  15.4998070987654 11.84375  14.3709490740741 11.84375  C 13.9238040123457 11.84375  13.4711612654321 11.7673611111111  13.0130208333333 11.6145833333333  C 12.5548804012346 11.4618055555556  12.1572145061728 11.2951388888889  11.8200231481481 11.1145833333333  C 11.4828317901235 10.9340277777778  11.0595100308642 10.7673611111111  10.5500578703704 10.6145833333333  C 10.0406057098765 10.4618055555556  9.51832561728395 10.3854166666667  8.98321759259259 10.3854166666667  C 7.57581018518519 10.3854166666667  5.87519290123457 10.8923611111111  3.88136574074074 11.90625  C 3.75675154320988 11.96875  3.6358024691358 12  3.51851851851852 12  C 3.32793209876543 12  3.16300154320988 11.9340277777778  3.02372685185185 11.8020833333333  C 2.88445216049383 11.6701388888889  2.81481481481481 11.5138888888889  2.81481481481481 11.3333333333333  L 2.81481481481481 3.60416666666667  C 2.81481481481481 3.38194444444444  2.92843364197531 3.19097222222222  3.1556712962963 3.03125  C 3.30960648148148 2.93402777777778  3.5991512345679 2.78472222222222  4.02430555555556 2.58333333333333  C 5.75424382716049 1.75  7.29726080246914 1.33333333333333  8.65335648148148 1.33333333333333  C 9.43769290123457 1.33333333333333  10.1707175925926 1.43402777777778  10.8524305555556 1.63541666666667  C 11.5341435185185 1.83680555555556  12.3368055555556 2.14236111111111  13.2604166666667 2.55208333333333  C 13.5389660493827 2.68402777777778  13.8614969135802 2.75  14.2280092592593 2.75  C 14.6238425925926 2.75  15.0544945987654 2.67708333333333  15.5199652777778 2.53125  C 15.9854359567901 2.38541666666667  16.388599537037 2.22222222222222  16.7294560185185 2.04166666666667  C 17.0703125 1.86111111111111  17.3928433641975 1.69791666666667  17.6970486111111 1.55208333333333  C 18.0012538580247 1.40625  18.2010030864198 1.33333333333333  18.2962962962963 1.33333333333333  C 18.4868827160494 1.33333333333333  18.6518132716049 1.39930555555556  18.791087962963 1.53125  Z " fill-rule="nonzero" fill="url(#LinearGradient41)" stroke="none" transform="matrix(1 0 0 1 1307 476 )" />
  </g>
</svg>