<?xml version="1.0" encoding="utf-8"?>
<svg version="1.1" xmlns:xlink="http://www.w3.org/1999/xlink" width="86px" height="26px" xmlns="http://www.w3.org/2000/svg">
  <defs>
    <mask fill="white" id="clip44">
      <path d="M 6.60539348850065 9.46446609406735  L 0.146000995619381 0  L 82.5873015873016 0  C 84.4984126984127 0  86 2.20000000000005  86 5  L 86 21  C 86 23.8  84.4984126984127 26  82.5873015873016 26  L 0.146623255223241 25.9983833174786  L 6.60539348850066 16.5355339059327  C 7.95675311476828 14.5556349186104  7.95675311476827 11.4443650813896  6.60539348850065 9.46446609406735  Z " fill-rule="evenodd" />
    </mask>
  </defs>
  <g transform="matrix(1 0 0 1 -567 -514 )">
    <path d="M 6.60539348850065 9.46446609406735  L 0.146000995619381 0  L 82.5873015873016 0  C 84.4984126984127 0  86 2.20000000000005  86 5  L 86 21  C 86 23.8  84.4984126984127 26  82.5873015873016 26  L 0.146623255223241 25.9983833174786  L 6.60539348850066 16.5355339059327  C 7.95675311476828 14.5556349186104  7.95675311476827 11.4443650813896  6.60539348850065 9.46446609406735  Z " fill-rule="nonzero" fill="#70b603" stroke="none" transform="matrix(1 0 0 1 567 514 )" />
    <path d="M 6.60539348850065 9.46446609406735  L 0.146000995619381 0  L 82.5873015873016 0  C 84.4984126984127 0  86 2.20000000000005  86 5  L 86 21  C 86 23.8  84.4984126984127 26  82.5873015873016 26  L 0.146623255223241 25.9983833174786  L 6.60539348850066 16.5355339059327  C 7.95675311476828 14.5556349186104  7.95675311476827 11.4443650813896  6.60539348850065 9.46446609406735  Z " stroke-width="2" stroke="#ffffff" fill="none" transform="matrix(1 0 0 1 567 514 )" mask="url(#clip44)" />
  </g>
</svg>