<svg t="1586526015054" class="icon" viewBox="0 0 1092 1024" version="1.1" xmlns="http://www.w3.org/2000/svg" p-id="5696" width="32" height="32"><path d="M1037.653333 320.853333c20.48 20.48 27.306667 54.613333 20.48 81.92-13.653333 27.306667-34.133333 47.786667-68.266666 47.786667h-68.266667v423.253333c0 61.44-54.613333 116.053333-116.053333 116.053334h-546.133334c-61.44 0-116.053333-54.613333-116.053333-116.053334V443.733333H68.266667c-27.306667 0-54.613333-20.48-68.266667-47.786666-6.826667-20.48 0-54.613333 20.48-75.093334L450.56 27.306667C498.346667 0 559.786667 0 600.746667 27.306667l436.906666 293.546666z m-621.226666 525.653334c-40.96-81.92-20.48-129.706667 13.653333-177.493334 34.133333-47.786667 40.96-95.573333 40.96-95.573333s27.306667 34.133333 13.653333 88.746667c47.786667-54.613333 54.613333-136.533333 47.786667-170.666667 109.226667 75.093333 150.186667 232.106667 88.746667 354.986667 327.68-184.32 81.92-457.386667 40.96-491.52 20.48 34.133333 20.48 88.746667-6.826667 116.053333-47.786667-184.32-170.666667-225.28-170.666667-225.28 13.653333 95.573333-47.786667 197.973333-116.053333 273.066667 0-40.96-6.826667-61.44-27.306667-102.4C341.333333 491.52 286.72 546.133333 273.066667 614.4c-20.48 95.573333 13.653333 163.84 143.36 232.106667z" fill="#ffffff" p-id="5697"></path></svg>