<?xml version="1.0" encoding="utf-8"?>
<svg version="1.1" xmlns:xlink="http://www.w3.org/1999/xlink" width="264px" height="149px" xmlns="http://www.w3.org/2000/svg">
  <g transform="matrix(1 0 0 1 -601 -163 )">
    <path d="M 601 163  L 865 163  L 865 312  L 601 312  L 601 163  " fill-rule="nonzero" fill="#cccccc" stroke="none" />
    <path d="M 611 173  L 855 173  L 855 302  L 611 302  L 611 173  " fill-rule="nonzero" fill="#ffffff" stroke="none" />
    <path d="M 749.455 207.7  C 743.197 207.7  738.28 202.783  738.28 196.525  C 738.28 190.267  743.197 185.35  749.455 185.35  C 755.713 185.35  760.63 190.267  760.63 196.525  C 760.63 202.783  755.713 207.7  749.455 207.7  " fill-rule="nonzero" fill="#cccccc" stroke="none" />
    <path d="M 615 299  L 615 231.9  L 674.25 201.4  L 757.2 257.686363636364  L 804.6 219.7  L 852 257.686363636364  L 852 299  L 615 299  " fill-rule="nonzero" fill="#169bd5" stroke="none" />
  </g>
</svg>