<?xml version="1.0" encoding="utf-8"?>
<svg version="1.1" xmlns:xlink="http://www.w3.org/1999/xlink" width="60px" height="20px" xmlns="http://www.w3.org/2000/svg">
  <defs>
    <radialGradient cx="1602" cy="58" r="30" gradientTransform="matrix(-1 0 0 -0.333333333333333 3204 77.3333333333333 )" gradientUnits="userSpaceOnUse" id="RadialGradient78">
      <stop id="Stop79" stop-color="#004959" offset="0" />
      <stop id="Stop80" stop-color="#00396e" offset="1" />
    </radialGradient>
  </defs>
  <g transform="matrix(1 0 0 1 -1572 -48 )">
    <path d="M 1572.5 58  A 9.5 9.5 0 0 1 1582 48.5 L 1622 48.5  A 9.5 9.5 0 0 1 1631.5 58 A 9.5 9.5 0 0 1 1622 67.5 L 1582 67.5  A 9.5 9.5 0 0 1 1572.5 58 Z " fill-rule="nonzero" fill="url(#RadialGradient78)" stroke="none" />
    <path d="M 1572.5 58  A 9.5 9.5 0 0 1 1582 48.5 L 1622 48.5  A 9.5 9.5 0 0 1 1631.5 58 A 9.5 9.5 0 0 1 1622 67.5 L 1582 67.5  A 9.5 9.5 0 0 1 1572.5 58 Z " stroke-width="1" stroke="#027db4" fill="none" />
  </g>
</svg>