<?xml version="1.0" encoding="utf-8"?>
<svg version="1.1" xmlns:xlink="http://www.w3.org/1999/xlink" width="60px" height="20px" xmlns="http://www.w3.org/2000/svg">
  <g transform="matrix(1 0 0 1 -1572 -48 )">
    <path d="M 1572.5 58  A 9.5 9.5 0 0 1 1582 48.5 L 1622 48.5  A 9.5 9.5 0 0 1 1631.5 58 A 9.5 9.5 0 0 1 1622 67.5 L 1582 67.5  A 9.5 9.5 0 0 1 1572.5 58 Z " fill-rule="nonzero" fill="#02a7f0" stroke="none" />
    <path d="M 1572.5 58  A 9.5 9.5 0 0 1 1582 48.5 L 1622 48.5  A 9.5 9.5 0 0 1 1631.5 58 A 9.5 9.5 0 0 1 1622 67.5 L 1582 67.5  A 9.5 9.5 0 0 1 1572.5 58 Z " stroke-width="1" stroke="#027db4" fill="none" />
  </g>
</svg>