<?xml version="1.0" encoding="utf-8"?>
<svg version="1.1" xmlns:xlink="http://www.w3.org/1999/xlink" width="95px" height="20px" xmlns="http://www.w3.org/2000/svg">
  <g transform="matrix(1 0 0 1 -1683 -75 )">
    <path d="M 1683.5 85  A 9.5 9.5 0 0 1 1693 75.5 L 1768 75.5  A 9.5 9.5 0 0 1 1777.5 85 A 9.5 9.5 0 0 1 1768 94.5 L 1693 94.5  A 9.5 9.5 0 0 1 1683.5 85 Z " fill-rule="nonzero" fill="#02a7f0" stroke="none" />
    <path d="M 1683.5 85  A 9.5 9.5 0 0 1 1693 75.5 L 1768 75.5  A 9.5 9.5 0 0 1 1777.5 85 A 9.5 9.5 0 0 1 1768 94.5 L 1693 94.5  A 9.5 9.5 0 0 1 1683.5 85 Z " stroke-width="1" stroke="#027db4" fill="none" />
  </g>
</svg>