<?xml version="1.0" encoding="utf-8"?>
<svg version="1.1" xmlns:xlink="http://www.w3.org/1999/xlink" width="60px" height="30px" xmlns="http://www.w3.org/2000/svg">
  <defs>
    <radialGradient cx="1602" cy="147" r="30" gradientTransform="matrix(-1 0 0 -0.5 3204 220.5 )" gradientUnits="userSpaceOnUse" id="RadialGradient88">
      <stop id="Stop89" stop-color="#004959" offset="0" />
      <stop id="Stop90" stop-color="#00396e" offset="1" />
    </radialGradient>
  </defs>
  <g transform="matrix(1 0 0 1 -1572 -132 )">
    <path d="M 1572.5 147  A 14.5 14.5 0 0 1 1587 132.5 L 1617 132.5  A 14.5 14.5 0 0 1 1631.5 147 A 14.5 14.5 0 0 1 1617 161.5 L 1587 161.5  A 14.5 14.5 0 0 1 1572.5 147 Z " fill-rule="nonzero" fill="url(#RadialGradient88)" stroke="none" />
    <path d="M 1572.5 147  A 14.5 14.5 0 0 1 1587 132.5 L 1617 132.5  A 14.5 14.5 0 0 1 1631.5 147 A 14.5 14.5 0 0 1 1617 161.5 L 1587 161.5  A 14.5 14.5 0 0 1 1572.5 147 Z " stroke-width="1" stroke="#027db4" fill="none" />
  </g>
</svg>