<?xml version="1.0" encoding="utf-8"?>
<svg version="1.1" xmlns:xlink="http://www.w3.org/1999/xlink" width="13px" height="15px" xmlns="http://www.w3.org/2000/svg">
  <g transform="matrix(1 0 0 1 -109 -476 )">
    <path d="M 6.49891220703125 14.9996374072266  C 4.24354573730469 14.9996374072266  0.0473675292968752 11.6381623535156  0.0473675292968752 8.45871205078125  L 0.0473675292968752 2.39007203613281  C 0.0473675292968752 2.24285679199219  0.170651225585938 2.12392428222656  0.32330544921875 2.12084219238281  L 0.6888053515625 2.11467801269531  C 0.702765415039063 2.11467801269531  2.13557580078125 2.08585138183594  3.61262328125 1.50097901367188  C 5.12846886230469 0.902690478515625  6.10549216308594 0.212845678710938  6.11582624023437 0.205774995117187  L 6.33102880859375 0.053120771484375  C 6.3799503560768 0.0188069938210596  6.43824992876751 0.000386605279143548  6.498005703125 0.000362592773437487  C 6.55734840272584 -2.29234213100917E-05  6.61533506015853 0.0181018676342226  6.6638948046875 0.052214267578125  L 6.88326725585937 0.206137587890625  C 6.89323872558594 0.213208271484375  7.87116853027344 0.902327885742187  9.38520111816406 1.50134162109375  C 10.863698984375 2.08621398925781  12.2965093701172 2.11504062011719  12.3111946484375 2.11504060546875  L 12.67379375 2.12120479980469  C 12.8266292773437 2.12428688964844  12.9495503662109 2.24321939941406  12.9495503808594 2.39043462890625  L 12.9526324707031 8.45907464355469  C 12.9526324707031 11.6381623388672  8.7557290625 15  6.49836831054687 15  Z M 11.9607426025391 8.45907464355469  L 11.9572979052734 3.09677770019531  C 11.4027025683594 3.05507879882813  10.2358586328125 2.9118521484375  9.02368980957031 2.4319522265625  C 7.78505124511719 1.94244342773438  6.87438357910156 1.39183668457031  6.49891220703125 1.14871397460938  C 6.12452862792969 1.39093018066406  5.21331706542969 1.94171822753906  3.97504109375 2.4319522265625  C 2.76504785644531 2.91076435546875  1.60146731445313 3.05399100585938  1.03925739746094 3.09677770019531  L 1.03925739746094 8.45871205078125  C 1.03925739746094 10.9521248291016  4.69516292480469 13.9999516552734  6.49891220703125 13.9999516552734  C 7.19800329101562 13.9999516552734  8.56028814453125 13.4326653515625  9.89936666503906 12.1869561035156  C 11.1902194970703 10.9871156542969  11.9607426025391 9.59310336914063  11.9607426025391 8.45907464355469  Z M 9.20825275390625 6.22909012207032  L 5.98148326660156 9.47852204589844  C 5.88946034819902 9.57286449607343  5.76318405437005 9.62596462815996  5.631393828125 9.62573729003906  C 5.49927095313154 9.6256856765136  5.37266957903699 9.57273378646063  5.27985398925781 9.47870334960938  L 3.79047814941406 7.97971861816406  C 3.59693894491528 7.78376096130383  3.59693894491528 7.46860801818836  3.79047814941406 7.27265036132813  C 3.88314604060597 7.17870021044743  4.00960273835727 7.12581042860277  4.14156473632813 7.12581042860277  C 4.27352673429898 7.12581042860277  4.39998343205028 7.17870021044743  4.49265132324219 7.27265036132813  L 5.631393828125 8.41791965332031  L 8.50644217285156 5.52202185058594  C 8.59894997081458 5.42791113207756  8.72538337727163 5.37490343013567  8.85734746337891 5.37490343013567  C 8.98931154948619 5.37490343013567  9.11574495594323 5.42791113207756  9.20825275390625 5.52202185058594  C 9.40307649741527 5.71745035559729  9.40307649741527 6.03366161705897  9.20825275390625 6.22909012207032  Z " fill-rule="nonzero" fill="#999999" stroke="none" transform="matrix(1 0 0 1 109 476 )" />
  </g>
</svg>