<?xml version="1.0" encoding="utf-8"?>
<svg version="1.1" xmlns:xlink="http://www.w3.org/1999/xlink" width="68px" height="88px" xmlns="http://www.w3.org/2000/svg">
  <defs>
    <mask fill="white" id="clip6">
      <path d="M 55.638529282467 0.112689058766986  L 56.4574783655658 0  C 56.4574783655658 0  60.6120620475569 32.6655829761946  60.6120620475569 32.6655829761946  C 65.2448933803083 68.8986593669769  67.707539364456 87.3434650415787  68 88  C 68 88  0 31.4252484423855  0 31.4252484423855  C 14.1122429360231 14.2693522157599  34.0084852906496 3.19292254911432  55.638529282467 0.112689058767004  Z " fill-rule="evenodd" />
    </mask>
  </defs>
  <g transform="matrix(1 0 0 1 -106 -65 )">
    <path d="M 55.638529282467 0.112689058766986  L 56.4574783655658 0  C 56.4574783655658 0  60.6120620475569 32.6655829761946  60.6120620475569 32.6655829761946  C 65.2448933803083 68.8986593669769  67.707539364456 87.3434650415787  68 88  C 68 88  0 31.4252484423855  0 31.4252484423855  C 14.1122429360231 14.2693522157599  34.0084852906496 3.19292254911432  55.638529282467 0.112689058767004  Z " fill-rule="nonzero" fill="#5d7092" stroke="none" transform="matrix(1 0 0 1 106 65 )" />
    <path d="M 55.638529282467 0.112689058766986  L 56.4574783655658 0  C 56.4574783655658 0  60.6120620475569 32.6655829761946  60.6120620475569 32.6655829761946  C 65.2448933803083 68.8986593669769  67.707539364456 87.3434650415787  68 88  C 68 88  0 31.4252484423855  0 31.4252484423855  C 14.1122429360231 14.2693522157599  34.0084852906496 3.19292254911432  55.638529282467 0.112689058767004  Z " stroke-width="2" stroke="#797979" fill="none" transform="matrix(1 0 0 1 106 65 )" mask="url(#clip6)" />
  </g>
</svg>