<?xml version="1.0" encoding="utf-8"?>
<svg version="1.1" xmlns:xlink="http://www.w3.org/1999/xlink" width="12px" height="89px" xmlns="http://www.w3.org/2000/svg">
  <defs>
    <mask fill="white" id="clip7">
      <path d="M 0 0.765851670804857  C 11.6373308022885 89.5069552983691  11.9999964698944 88.9970872538647  11.9999964698944 88.9970872538647  C 11.9999964698944 88.9970872538647  12 0  12 0  C 7.96126512542766 0  3.95365828063473 0.258760546533258  0 0.765851670804857  Z " fill-rule="evenodd" />
    </mask>
  </defs>
  <g transform="matrix(1 0 0 1 -164 -65 )">
    <path d="M 0 0.765851670804857  C 11.6373308022885 89.5069552983691  11.9999964698944 88.9970872538647  11.9999964698944 88.9970872538647  C 11.9999964698944 88.9970872538647  12 0  12 0  C 7.96126512542766 0  3.95365828063473 0.258760546533258  0 0.765851670804857  Z " fill-rule="nonzero" fill="#f6bd16" stroke="none" transform="matrix(1 0 0 1 164 65 )" />
    <path d="M 0 0.765851670804857  C 11.6373308022885 89.5069552983691  11.9999964698944 88.9970872538647  11.9999964698944 88.9970872538647  C 11.9999964698944 88.9970872538647  12 0  12 0  C 7.96126512542766 0  3.95365828063473 0.258760546533258  0 0.765851670804857  Z " stroke-width="2" stroke="#797979" fill="none" transform="matrix(1 0 0 1 164 65 )" mask="url(#clip7)" />
  </g>
</svg>