<?xml version="1.0" encoding="utf-8"?>
<svg version="1.1" xmlns:xlink="http://www.w3.org/1999/xlink" width="154px" height="146px" xmlns="http://www.w3.org/2000/svg">
  <defs>
    <mask fill="white" id="clip5">
      <path d="M 154 117.872359733011  C 154 117.872359733011  89.0710998751109 56.8353378543947  89.0710998751109 56.8353378543947  C 89.0710998751109 56.8353378543947  20.441833304276 0  20.441833304276 0  C -10.2198580744467 37.1029635336073  -5.91387211171664 91.8737840508126  30.1683502185734 123.718311388268  C 66.2505725488635 155.562838725724  121.071568636037 152.974801714311  154 117.872359733011  Z " fill-rule="evenodd" />
    </mask>
  </defs>
  <g transform="matrix(1 0 0 1 -86 -97 )">
    <path d="M 154 117.872359733011  C 154 117.872359733011  89.0710998751109 56.8353378543947  89.0710998751109 56.8353378543947  C 89.0710998751109 56.8353378543947  20.441833304276 0  20.441833304276 0  C -10.2198580744467 37.1029635336073  -5.91387211171664 91.8737840508126  30.1683502185734 123.718311388268  C 66.2505725488635 155.562838725724  121.071568636037 152.974801714311  154 117.872359733011  Z " fill-rule="nonzero" fill="#5ad8a6" stroke="none" transform="matrix(1 0 0 1 86 97 )" />
    <path d="M 154 117.872359733011  C 154 117.872359733011  89.0710998751109 56.8353378543947  89.0710998751109 56.8353378543947  C 89.0710998751109 56.8353378543947  20.441833304276 0  20.441833304276 0  C -10.2198580744467 37.1029635336073  -5.91387211171664 91.8737840508126  30.1683502185734 123.718311388268  C 66.2505725488635 155.562838725724  121.071568636037 152.974801714311  154 117.872359733011  Z " stroke-width="2" stroke="#797979" fill="none" transform="matrix(1 0 0 1 86 97 )" mask="url(#clip5)" />
  </g>
</svg>