<?xml version="1.0" encoding="utf-8"?>
<svg version="1.1" xmlns:xlink="http://www.w3.org/1999/xlink" width="89px" height="149px" xmlns="http://www.w3.org/2000/svg">
  <defs>
    <mask fill="white" id="clip8">
      <path d="M 0 0  C 0 0  0 88.4510691482599  0 88.4510691482599  C 0 88.4510691482599  64.8767419149082 149  64.8767419149082 149  C 89.1699883950354 123.289295867226  95.7723229638556 85.6920975564246  81.6783161194845 53.3229162777834  C 67.5843092751135 20.9537349991421  35.4880566577955 0  0 0  Z " fill-rule="evenodd" />
    </mask>
  </defs>
  <g transform="matrix(1 0 0 1 -175 -65 )">
    <path d="M 0 0  C 0 0  0 88.4510691482599  0 88.4510691482599  C 0 88.4510691482599  64.8767419149082 149  64.8767419149082 149  C 89.1699883950354 123.289295867226  95.7723229638556 85.6920975564246  81.6783161194845 53.3229162777834  C 67.5843092751135 20.9537349991421  35.4880566577955 0  0 0  Z " fill-rule="nonzero" fill="#ffffff" stroke="none" fill-opacity="0" transform="matrix(1 0 0 1 175 65 )" />
    <path d="M 0 0  C 0 0  0 88.4510691482599  0 88.4510691482599  C 0 88.4510691482599  64.8767419149082 149  64.8767419149082 149  C 89.1699883950354 123.289295867226  95.7723229638556 85.6920975564246  81.6783161194845 53.3229162777834  C 67.5843092751135 20.9537349991421  35.4880566577955 0  0 0  Z " stroke-width="2" stroke="#000000" fill="none" stroke-opacity="0.850980392156863" transform="matrix(1 0 0 1 175 65 )" mask="url(#clip8)" />
  </g>
</svg>